<svg xmlns="http://www.w3.org/2000/svg" viewBox="180 178 1576 1576">
  <path d="M197 654 A308 308 0 0 1 813 654 L813 970 L1430 970 A307.5 307.5 0 0 1 1430 1585 L427 1585 A230 230 0 0 1 197 1355 Z" fill="#ff914d"/>
  <path d="M813 623 A163 163 0 0 0 813 949 Z" fill="#000"/>
  <g fill="#000">
    <circle cx="352" cy="578" r="5.5"/><circle cx="511" cy="573" r="5.5"/><circle cx="432" cy="618" r="5.5"/>
    <circle cx="341" cy="719" r="5.5"/><circle cx="471" cy="730" r="5.5"/><circle cx="374" cy="841" r="5.5"/>
    <circle cx="421" cy="905" r="5.5"/>
  </g>
  <line x1="926" y1="1353" x2="1728" y2="1353" stroke="#000" stroke-width="4"/>
</svg>
